<?xml version="1.0" encoding="utf-8"?>
<!DOCTYPE svg PUBLIC "-//W3C//DTD SVG 1.1//EN"  "http://www.w3.org/Graphics/SVG/1.1/DTD/svg11.dtd">
<svg version="1.1" xmlns="http://www.w3.org/2000/svg" xmlns:xlink="http://www.w3.org/1999/xlink" font-family="Arial" font-size="13" width="930" height="485">
	<desc>UML diagram model</desc>
	<g id="_8yXKUv2WEeW9zv77lynsJg">
		<defs>
			<linearGradient id="greyGradient" x1="0%" y1="0%" x2="0%" y2="100%" spreadMethod="pad">
				<stop offset="0%" stop-color="#FFFFFF" stop-opacity="1" />
				<stop offset="100%" stop-color="#EEEEEE" stop-opacity="1" />
				
			</linearGradient>
			<linearGradient id="packageGradient" x1="0%" y1="0%" x2="0%" y2="100%" spreadMethod="pad">
				<stop offset="0%" stop-color="#FFFFFF" stop-opacity="1" />
				<stop offset="100%" stop-color="#EFE9DE" stop-opacity="0.4" />
				
			</linearGradient>
			<linearGradient id="executionSpecificationGradient" x1="0%" y1="0%" x2="0%" y2="100%" spreadMethod="pad">
				<stop offset="0%" stop-color="#FFFFFF" stop-opacity="1" />
				<stop offset="100%" stop-color="#EFE9DE" stop-opacity="1" />
				
			</linearGradient>
			
		</defs>
		<g id="_6HisEd_EEDO6q9wxfyFEEw">
			<ellipse cx="100" cy="168" rx="6" ry="6" fill="#FFF" stroke="#888" stroke-width="2.0" />
			<line x1="100" y1="174" x2="100" y2="205" stroke-width="2.0" stroke="#888" />
			<line x1="86" y1="186" x2="114" y2="186" stroke-width="2.0" stroke="#888" />
			<line x1="100" y1="205" x2="89" y2="223" stroke-width="2.0" stroke="#888" />
			<line x1="100" y1="205" x2="110" y2="223" stroke-width="2.0" stroke="#888" />
			<text x="100" y="225" text-anchor="middle" font-style="normal" font-weight="normal" fill="black">
				<tspan x="100" text-anchor="middle" dy="13">Administrator</tspan>
				
			</text>
			
		</g>
		<g id="__ryXwN_EEDO6q9wxfyFEEw">
			<ellipse cx="460" cy="48" rx="50" ry="28" fill="url(#greyGradient)" stroke="#BBBBBB" stroke-width="1.0" />
			<g transform="translate(410,41.0)">
				<text x="50" y="0" text-anchor="middle" font-style="normal" font-weight="bold" fill="#033656">
					<tspan x="50" text-anchor="middle" dy="13">Register</tspan>
					
				</text>
				
			</g>
			
		</g>
		<g id="_CWd1UN_FEDO6q9wxfyFEEw">
			<ellipse cx="460" cy="138" rx="50" ry="28" fill="url(#greyGradient)" stroke="#BBBBBB" stroke-width="1.0" />
			<g transform="translate(410,131.0)">
				<text x="50" y="0" text-anchor="middle" font-style="normal" font-weight="bold" fill="#033656">
					<tspan x="50" text-anchor="middle" dy="13">Login</tspan>
					
				</text>
				
			</g>
			
		</g>
		<g id="_EVqs8N_FEDO6q9wxfyFEEw">
			<ellipse cx="460" cy="208" rx="50" ry="28" fill="url(#greyGradient)" stroke="#BBBBBB" stroke-width="1.0" />
			<g transform="translate(410,194.5)">
				<text x="50" y="0" text-anchor="middle" font-style="normal" font-weight="bold" fill="#033656">
					<tspan x="50" text-anchor="middle" dy="13">Search into</tspan>
					<tspan x="50" text-anchor="middle" dy="13">DB</tspan>
					
				</text>
				
			</g>
			
		</g>
		<g id="_GQrBEN_FEDO6q9wxfyFEEw">
			<ellipse cx="460" cy="298" rx="50" ry="28" fill="url(#greyGradient)" stroke="#BBBBBB" stroke-width="1.0" />
			<g transform="translate(410,284.5)">
				<text x="50" y="0" text-anchor="middle" font-style="normal" font-weight="bold" fill="#033656">
					<tspan x="50" text-anchor="middle" dy="13">Add Data to</tspan>
					<tspan x="50" text-anchor="middle" dy="13">DB</tspan>
					
				</text>
				
			</g>
			
		</g>
		<g id="_JaHeQN_FEDO6q9wxfyFEEw">
			<ellipse cx="460" cy="388" rx="50" ry="28" fill="url(#greyGradient)" stroke="#BBBBBB" stroke-width="1.0" />
			<g transform="translate(410,381.0)">
				<text x="50" y="0" text-anchor="middle" font-style="normal" font-weight="bold" fill="#033656">
					<tspan x="50" text-anchor="middle" dy="13">Logout</tspan>
					
				</text>
				
			</g>
			
		</g>
		<g id="_K3_xgN_FEDO6q9wxfyFEEw">
			<ellipse cx="100" cy="408" rx="50" ry="28" fill="url(#greyGradient)" stroke="#BBBBBB" stroke-width="1.0" />
			<g transform="translate(50,394.5)">
				<text x="50" y="0" text-anchor="middle" font-style="normal" font-weight="bold" fill="#033656">
					<tspan x="50" text-anchor="middle" dy="13">Delete from</tspan>
					<tspan x="50" text-anchor="middle" dy="13">DB</tspan>
					
				</text>
				
			</g>
			
		</g>
		<g id="_OsuAUN_FEDO6q9wxfyFEEw">
			<ellipse cx="860" cy="178" rx="6" ry="6" fill="#FFF" stroke="#888" stroke-width="2.0" />
			<line x1="860" y1="184" x2="860" y2="215" stroke-width="2.0" stroke="#888" />
			<line x1="846" y1="196" x2="874" y2="196" stroke-width="2.0" stroke="#888" />
			<line x1="860" y1="215" x2="849" y2="233" stroke-width="2.0" stroke="#888" />
			<line x1="860" y1="215" x2="870" y2="233" stroke-width="2.0" stroke="#888" />
			<text x="860" y="235" text-anchor="middle" font-style="normal" font-weight="normal" fill="black">
				<tspan x="860" text-anchor="middle" dy="13">User</tspan>
				
			</text>
			
		</g>
		<g id="_B4guAd_FEDO6q9wxfyFEEw">
			<polyline fill="none" stroke-width="1" stroke="#000000" points="120,191 410,69" />
			
		</g>
		<g id="_DbsYAd_FEDO6q9wxfyFEEw">
			<polyline fill="none" stroke-width="1" stroke="#000000" points="120,196 410,146" />
			
		</g>
		<g id="_Fr-Ykd_FEDO6q9wxfyFEEw">
			<polyline fill="none" stroke-width="1" stroke="#000000" points="120,200 410,206" />
			
		</g>
		<g id="_JFSdwd_FEDO6q9wxfyFEEw">
			<polyline fill="none" stroke-width="1" stroke="#000000" points="120,205 410,284" />
			
		</g>
		<g id="_KX4uEd_FEDO6q9wxfyFEEw">
			<polyline fill="none" stroke-width="1" stroke="#000000" points="120,210 410,361" />
			
		</g>
		<g id="_MKkMod_FEDO6q9wxfyFEEw">
			<polyline fill="none" stroke-width="1" stroke="#000000" points="100,240 100,380" />
			
		</g>
		<g id="_P3fKUd_FEDO6q9wxfyFEEw">
			<polyline fill="none" stroke-width="1" stroke="#000000" points="840,201 510,68" />
			
		</g>
		<g id="_QT4ycN_FEDO6q9wxfyFEEw">
			<polyline fill="none" stroke-width="1" stroke="#000000" points="840,206 510,147" />
			
		</g>
		<g id="_Q3bkYd_FEDO6q9wxfyFEEw">
			<polyline fill="none" stroke-width="1" stroke="#000000" points="840,209 510,208" />
			
		</g>
		<g id="_RcdkEd_FEDO6q9wxfyFEEw">
			<polyline fill="none" stroke-width="1" stroke="#000000" points="840,214 510,287" />
			
		</g>
		<g id="_R2qz0d_FEDO6q9wxfyFEEw">
			<polyline fill="none" stroke-width="1" stroke="#000000" points="840,218 510,365" />
			
		</g>
		
	</g>
	
</svg>
